<svg version="1.1"
     xmlns="http://www.w3.org/2000/svg"
     viewBox="20 0 100 80"
     width="400" height="200"
>
    <g>
        <path fill="grey"
              d="m 0.45337068,50.749253 0.176366,14.62074 H 142.29967 v -33.42213 h -10.72501 v -9.72734 h -17.70874 v 5.98605 h -4.98838 V 7.0059735 H 92.665308 v 7.2331395 h -8.48024 v 8.48025 h -6.73431 V 0.77049348 H 47.520491 V 24.465293 l -1.753687,0.4699 V 10.996673 H 32.555356 v 16.96048 h -1.745932 v -5.98605 H 8.8605617 l 0.08818,28.77815 z
        M 34.532719,12.55169 h 3.420903 v 3.99697 h -3.420903 z
        M 34.532719,18.136133 h 3.420903 v 3.99697 h -3.420903 z
        M 40.599461,12.55169 h 3.420903 v 3.99697 h -3.420903 z
        M 12.642477,24.964121 h 3.420904 v 3.996969 h -3.420904 z
        M 18.483435,24.964121 h 3.420903 v 3.996969 h -3.420903 z
        M 25.097151,31.701746 h 3.420903 v 3.996969 h -3.420903 z
        M 29.814932,31.701746 h 3.420904 v 3.996969 h -3.420904 z
        M 25.097151,36.757027 h 3.420903 v 3.996969 h -3.420903 z
        M 51.37566,3.9097683 h 3.420904 V 7.9067378 H 51.37566 Z
        M 51.37566,9.4942102 h 3.420904 V 13.49118 H 51.37566 Z
        M 51.37566,14.549493 h 3.420904 v 3.996969 H 51.37566 Z
        M 57.971569,9.4942102 h 3.420904 V 13.49118 h -3.420904 z
        M 54.902966,27.175623 h 3.420903 v 3.996969 h -3.420903 z
        M 61.498867,27.175623 h 3.420904 v 3.996969 h -3.420904 z
        M 54.902966,32.760063 h 3.420903 v 3.99697 h -3.420903 z
        M 69.805878,41.652046 h 3.420903 v 3.99697 h -3.420903 z
        M 74.814293,41.652046 h 3.420904 v 3.99697 h -3.420904 z
        M 69.805878,46.707329 h 3.420903 v 3.996969 h -3.420903 z
        M 57.971569,3.9097683 h 3.420904 v 3.9969695 h -3.420904 z
        M 64.03833,3.9097683 h 3.420904 V 7.9067378 H 64.03833 Z
        M 94.849823,9.2889185 h 3.420904 v 3.9969695 h -3.420904 z
        M 99.8582,9.2889185 h 3.4209 v 3.9969695 h -3.4209 z
        M 94.849823,14.344201 h 3.420904 v 3.99697 h -3.420904 z
        M 103.97675,36.228798 h 3.42091 v 3.996969 h -3.42091 z
        M 108.45596,36.228798 h 3.42091 v 3.996969 h -3.42091 z
        M 103.97675,40.754921 h 3.42091 v 3.996969 h -3.42091 z
        M 116.36646,23.905802 h 3.42091 v 3.996969 h -3.42091 z
        M 120.84567,23.905802 h 3.42091 v 3.996969 h -3.42091 z
        M 116.36646,28.961084 h 3.42091 v 3.99697 h -3.42091 z
        "/>
    </g>
</svg>
